<svg width="844" height="753" viewBox="0 0 844 753" fill="none" xmlns="http://www.w3.org/2000/svg">
<path d="M755.75 421.13C755.75 333.115 720.786 248.705 658.55 186.468C596.314 124.232 511.903 89.2681 423.888 89.2681C335.872 89.2681 251.462 124.232 189.226 186.468C126.989 248.705 92.0254 333.115 92.0254 421.13H101.981C101.981 335.755 135.896 253.877 196.266 193.508C256.635 133.139 338.513 99.2239 423.888 99.2239C509.263 99.2239 591.141 133.139 651.51 193.508C711.879 253.877 745.794 335.756 745.794 421.13H755.75Z" fill="url(#paint0_linear_683_837)"/>
<path d="M1 426.526H54.7877" stroke="#FDBA74" stroke-width="2" stroke-linecap="round"/>
<path d="M1.96191 364.198L55.1563 372.165" stroke="#FDBA74" stroke-width="2" stroke-linecap="round"/>
<path d="M16.3594 313.345L68.2363 327.554" stroke="#FDBA74" stroke-width="2" stroke-linecap="round"/>
<path d="M37.6533 262.745L86.8924 284.393" stroke="#FDBA74" stroke-width="2" stroke-linecap="round"/>
<path d="M63.4902 212.13L110.249 238.715" stroke="#FDBA74" stroke-width="2" stroke-linecap="round"/>
<path d="M93.9219 166.727L136.133 200.064" stroke="#FCA64C" stroke-width="2" stroke-linecap="round"/>
<path d="M129.278 129.268L167.59 167.022" stroke="#FCA64C" stroke-width="2" stroke-linecap="round"/>
<path d="M171.423 90.9048L204.665 133.19" stroke="#FCA64C" stroke-width="2" stroke-linecap="round"/>
<path d="M211.726 62.0298L239.451 108.121" stroke="#FCA64C" stroke-width="2" stroke-linecap="round"/>
<path d="M254.645 40.6177L278.239 88.9541" stroke="#FCA64C" stroke-width="2" stroke-linecap="round"/>
<path d="M843.009 417.562H789.221" stroke="#202020" stroke-width="2" stroke-linecap="round"/>
<path d="M842.048 355.233L788.853 363.2" stroke="#202020" stroke-width="2" stroke-linecap="round"/>
<path d="M827.647 304.381L775.771 318.59" stroke="#202020" stroke-width="2" stroke-linecap="round"/>
<path d="M806.355 253.78L757.116 275.428" stroke="#202020" stroke-width="2" stroke-linecap="round"/>
<path d="M780.517 203.166L733.758 229.751" stroke="#202020" stroke-width="2" stroke-linecap="round"/>
<path d="M750.09 157.761L707.879 191.098" stroke="#202020" stroke-width="2" stroke-linecap="round"/>
<path d="M714.73 120.304L676.419 158.058" stroke="#202020" stroke-width="2" stroke-linecap="round"/>
<path d="M672.589 81.9407L639.347 124.226" stroke="#202020" stroke-width="2" stroke-linecap="round"/>
<path d="M632.283 53.0654L604.558 99.1568" stroke="#202020" stroke-width="2" stroke-linecap="round"/>
<path d="M589.367 31.6536L565.773 79.99" stroke="#202020" stroke-width="2" stroke-linecap="round"/>
<path d="M302.158 18.2988L316.035 70.2658" stroke="#FB8E1E" stroke-width="2" stroke-linecap="round"/>
<path d="M362.366 5.24927L366.783 58.8553" stroke="#FB8E1E" stroke-width="2" stroke-linecap="round"/>
<path d="M415.52 1L415.616 54.7876" stroke="#FB8E1E" stroke-width="2" stroke-linecap="round"/>
<path d="M478.722 4.1272L470.926 57.3469" stroke="#FB8E1E" stroke-width="2" stroke-linecap="round"/>
<path d="M529.557 14.8552L516.773 67.1016" stroke="#FB8E1E" stroke-width="2" stroke-linecap="round"/>
<path d="M371.861 379.502L421.949 184.031L477.187 378.633C480.042 388.688 478.605 399.477 473.218 408.434C451.732 444.161 400.033 444.808 377.039 410.032C371.109 401.063 369.192 389.918 371.861 379.502Z" fill="#EA580C"/>
<path d="M449.372 392.658C449.555 406.913 438.148 418.617 423.894 418.8C409.64 418.983 397.936 407.577 397.753 393.323C397.569 379.068 408.976 367.364 423.23 367.181C437.484 366.998 449.188 378.404 449.372 392.658Z" fill="#070707"/>
<g filter="url(#filter0_if_683_837)">
<path d="M438.038 251.906C423.24 231.831 403.358 216.065 380.439 206.231C357.52 196.397 332.394 192.852 307.649 195.96C282.905 199.069 259.436 208.718 239.662 223.915C219.887 239.112 204.522 259.306 195.149 282.417L232.513 297.57C239.191 281.102 250.14 266.712 264.23 255.884C278.32 245.056 295.043 238.18 312.675 235.965C330.307 233.75 348.21 236.276 364.541 243.283C380.872 250.29 395.039 261.525 405.583 275.829L438.038 251.906Z" fill="#EA590D" fill-opacity="0.29"/>
</g>
<path d="M293.639 554.364V547.659L313.389 516.455H318.98V526H315.571L302.276 547.068V547.432H329.844V554.364H293.639ZM315.844 563V552.318L315.935 549.318V516.455H323.889V563H315.844ZM352.787 563.636C349.757 563.636 347.045 563.068 344.651 561.932C342.257 560.78 340.355 559.205 338.946 557.205C337.552 555.205 336.81 552.917 336.719 550.341H344.901C345.052 552.25 345.878 553.811 347.378 555.023C348.878 556.22 350.681 556.818 352.787 556.818C354.438 556.818 355.908 556.439 357.196 555.682C358.484 554.924 359.499 553.871 360.241 552.523C360.984 551.174 361.348 549.636 361.332 547.909C361.348 546.152 360.976 544.591 360.219 543.227C359.461 541.864 358.423 540.795 357.105 540.023C355.787 539.235 354.272 538.841 352.56 538.841C351.166 538.826 349.795 539.083 348.446 539.614C347.098 540.144 346.029 540.841 345.241 541.705L337.628 540.455L340.06 516.455H367.06V523.5H347.037L345.696 535.841H345.969C346.832 534.826 348.052 533.985 349.628 533.318C351.204 532.636 352.931 532.295 354.81 532.295C357.628 532.295 360.143 532.962 362.355 534.295C364.567 535.614 366.31 537.432 367.582 539.75C368.855 542.068 369.491 544.72 369.491 547.705C369.491 550.78 368.779 553.523 367.355 555.932C365.946 558.326 363.984 560.212 361.469 561.591C358.969 562.955 356.075 563.636 352.787 563.636ZM380.202 563.5C378.823 563.5 377.641 563.015 376.656 562.045C375.671 561.076 375.187 559.894 375.202 558.5C375.187 557.136 375.671 555.97 376.656 555C377.641 554.03 378.823 553.545 380.202 553.545C381.535 553.545 382.694 554.03 383.679 555C384.679 555.97 385.187 557.136 385.202 558.5C385.187 559.424 384.944 560.265 384.474 561.023C384.02 561.78 383.414 562.386 382.656 562.841C381.914 563.28 381.096 563.5 380.202 563.5ZM408.497 563.886C404.755 563.886 401.543 562.939 398.861 561.045C396.194 559.136 394.141 556.386 392.702 552.795C391.277 549.189 390.565 544.848 390.565 539.773C390.58 534.697 391.3 530.379 392.724 526.818C394.164 523.242 396.217 520.515 398.884 518.636C401.565 516.758 404.77 515.818 408.497 515.818C412.224 515.818 415.429 516.758 418.111 518.636C420.793 520.515 422.846 523.242 424.27 526.818C425.709 530.394 426.429 534.712 426.429 539.773C426.429 544.864 425.709 549.212 424.27 552.818C422.846 556.409 420.793 559.152 418.111 561.045C415.444 562.939 412.24 563.886 408.497 563.886ZM408.497 556.773C411.406 556.773 413.702 555.341 415.384 552.477C417.08 549.598 417.929 545.364 417.929 539.773C417.929 536.076 417.543 532.97 416.77 530.455C415.997 527.939 414.906 526.045 413.497 524.773C412.088 523.485 410.421 522.841 408.497 522.841C405.603 522.841 403.315 524.28 401.634 527.159C399.952 530.023 399.103 534.227 399.088 539.773C399.073 543.485 399.444 546.606 400.202 549.136C400.974 551.667 402.065 553.576 403.474 554.864C404.884 556.136 406.558 556.773 408.497 556.773ZM450.685 563.886C446.942 563.886 443.73 562.939 441.048 561.045C438.382 559.136 436.329 556.386 434.889 552.795C433.465 549.189 432.753 544.848 432.753 539.773C432.768 534.697 433.488 530.379 434.912 526.818C436.351 523.242 438.404 520.515 441.071 518.636C443.753 516.758 446.957 515.818 450.685 515.818C454.412 515.818 457.616 516.758 460.298 518.636C462.98 520.515 465.033 523.242 466.457 526.818C467.897 530.394 468.616 534.712 468.616 539.773C468.616 544.864 467.897 549.212 466.457 552.818C465.033 556.409 462.98 559.152 460.298 561.045C457.632 562.939 454.427 563.886 450.685 563.886ZM450.685 556.773C453.594 556.773 455.889 555.341 457.571 552.477C459.268 549.598 460.116 545.364 460.116 539.773C460.116 536.076 459.73 532.97 458.957 530.455C458.185 527.939 457.094 526.045 455.685 524.773C454.276 523.485 452.609 522.841 450.685 522.841C447.791 522.841 445.503 524.28 443.821 527.159C442.139 530.023 441.291 534.227 441.276 539.773C441.26 543.485 441.632 546.606 442.389 549.136C443.162 551.667 444.253 553.576 445.662 554.864C447.071 556.136 448.745 556.773 450.685 556.773ZM491.497 563V516.455H499.929V555.932H520.429V563H491.497ZM533.611 528.091L540.656 540.977L547.815 528.091H556.52L545.997 545.545L556.702 563H548.043L540.656 550.432L533.338 563H524.611L535.247 545.545L524.884 528.091H533.611Z" fill="#EA580C"/>
<defs>
<filter id="filter0_if_683_837" x="117.549" y="117.267" width="398.089" height="257.903" filterUnits="userSpaceOnUse" color-interpolation-filters="sRGB">
<feFlood flood-opacity="0" result="BackgroundImageFix"/>
<feBlend mode="normal" in="SourceGraphic" in2="BackgroundImageFix" result="shape"/>
<feColorMatrix in="SourceAlpha" type="matrix" values="0 0 0 0 0 0 0 0 0 0 0 0 0 0 0 0 0 0 127 0" result="hardAlpha"/>
<feOffset dy="4"/>
<feGaussianBlur stdDeviation="2"/>
<feComposite in2="hardAlpha" operator="arithmetic" k2="-1" k3="1"/>
<feColorMatrix type="matrix" values="0 0 0 0 0.963663 0 0 0 0 0.512734 0 0 0 0 0.278003 0 0 0 1 0"/>
<feBlend mode="normal" in2="shape" result="effect1_innerShadow_683_837"/>
<feGaussianBlur stdDeviation="38.8" result="effect2_foregroundBlur_683_837"/>
</filter>
<linearGradient id="paint0_linear_683_837" x1="91.7092" y1="378.526" x2="540.172" y2="136.357" gradientUnits="userSpaceOnUse">
<stop stop-color="#FDBA74"/>
<stop offset="0.215" stop-color="#E37400"/>
<stop offset="0.36" stop-color="#E37400"/>
<stop offset="1" stop-color="#202020"/>
</linearGradient>
</defs>
</svg>
