<svg width="24" height="23" viewBox="0 0 24 23" fill="none" xmlns="http://www.w3.org/2000/svg">
<path d="M24 11.0206C24 10.87 23.9533 10.7219 23.8647 10.591C23.776 10.4601 23.6484 10.3508 23.4944 10.274L20.337 8.68524L23.4944 7.10516C23.6484 7.02828 23.7759 6.91903 23.8645 6.78812C23.9531 6.65721 23.9997 6.50916 23.9997 6.35852C23.9997 6.20788 23.9531 6.05983 23.8645 5.92892C23.7759 5.79802 23.6484 5.68876 23.4944 5.61189L12.5261 0.116314C12.3692 0.0401153 12.1913 0 12.0102 0C11.829 0 11.6511 0.0401153 11.4943 0.116314L0.505292 5.61189C0.35132 5.68876 0.22377 5.79802 0.135178 5.92892C0.0465855 6.05983 0 6.20788 0 6.35852C0 6.50916 0.0465855 6.65721 0.135178 6.78812C0.22377 6.91903 0.35132 7.02828 0.505292 7.10516L3.66268 8.69392L0.505292 10.274C0.35132 10.3509 0.22377 10.4601 0.135178 10.591C0.0465855 10.722 0 10.87 0 11.0206C0 11.1713 0.0465855 11.3193 0.135178 11.4502C0.22377 11.5811 0.35132 11.6904 0.505292 11.7673L3.66268 13.356L0.505292 14.9361C0.35132 15.013 0.22377 15.1223 0.135178 15.2532C0.0465855 15.3841 0 15.5321 0 15.6828C0 15.8334 0.0465855 15.9815 0.135178 16.1124C0.22377 16.2433 0.35132 16.3525 0.505292 16.4294L11.4736 21.925C11.6282 22.0067 11.807 22.05 11.9895 22.05C12.1721 22.05 12.3509 22.0067 12.5054 21.925L23.4738 16.4294C23.6277 16.3525 23.7553 16.2433 23.8439 16.1124C23.9325 15.9815 23.9791 15.8334 23.9791 15.6828C23.9791 15.5321 23.9325 15.3841 23.8439 15.2532C23.7553 15.1223 23.6277 15.013 23.4738 14.9361L20.3164 13.3474L23.4738 11.7673C23.6316 11.6926 23.7634 11.5843 23.8558 11.4533C23.9481 11.3222 23.9979 11.173 24 11.0206ZM11.9998 1.87004L20.9561 6.35852L11.9998 10.847L3.05391 6.35852L11.9998 1.87004ZM20.9561 15.6828L11.9998 20.1713L3.04359 15.6828L5.68507 14.3631L11.4736 17.2629C11.6305 17.3391 11.8084 17.3792 11.9895 17.3792C12.1707 17.3792 12.3486 17.3391 12.5054 17.2629L18.3043 14.3631L20.9561 15.6828ZM11.9998 15.5091L3.04359 11.0206L5.68507 9.70101L11.4736 12.6094C11.6297 12.6981 11.8117 12.7491 11.9998 12.757C12.185 12.757 12.3668 12.715 12.5261 12.6355L18.325 9.72706L20.9561 11.0206L11.9998 15.5091Z" fill="white"/>
</svg>
