<svg width="22" height="22" viewBox="0 0 22 22" fill="none" xmlns="http://www.w3.org/2000/svg">
<circle cx="11" cy="11" r="10" stroke="white" stroke-width="1.25"/>
<path d="M11 21L21 21" stroke="white" stroke-width="1.25" stroke-linecap="round"/>
<path d="M11 8C12.6569 8 14 9.34315 14 11C14 12.6569 12.6569 14 11 14C9.34315 14 8 12.6569 8 11C8 9.34315 9.34315 8 11 8Z" stroke="white" stroke-width="1.25"/>
<path d="M18.5 11C18.5 11.5523 18.0523 12 17.5 12C16.9477 12 16.5 11.5523 16.5 11C16.5 10.4477 16.9477 10 17.5 10C18.0523 10 18.5 10.4477 18.5 11Z" fill="white"/>
<path d="M5.5 11C5.5 11.5523 5.05228 12 4.5 12C3.94772 12 3.5 11.5523 3.5 11C3.5 10.4477 3.94772 10 4.5 10C5.05228 10 5.5 10.4477 5.5 11Z" fill="white"/>
<path d="M11 3.5C11.5523 3.5 12 3.94772 12 4.5C12 5.05228 11.5523 5.5 11 5.5C10.4477 5.5 10 5.05228 10 4.5C10 3.94772 10.4477 3.5 11 3.5Z" fill="white"/>
<path d="M11 16.5C11.5523 16.5 12 16.9477 12 17.5C12 18.0523 11.5523 18.5 11 18.5C10.4477 18.5 10 18.0523 10 17.5C10 16.9477 10.4477 16.5 11 16.5Z" fill="white"/>
</svg>
