<svg width="19" height="24" viewBox="0 0 19 24" fill="none" xmlns="http://www.w3.org/2000/svg">
<path d="M8.30992 10.0688L6.49068 8.2344L5.36883 9.3656L8.30992 12.3312L13.6312 6.9656L12.5093 5.8344L8.30992 10.0688Z" fill="white"/>
<path d="M18.2273 8.8C18.2273 3.9408 14.3206 0 9.5 0C4.68096 0 0.772728 3.9408 0.772728 8.8C0.772728 12.168 2.65227 15.092 5.40929 16.5712L4.73967 24L9.5 20.8L14.2603 24L13.5907 16.5712C14.9907 15.8226 16.162 14.7037 16.9788 13.3346C17.7957 11.9655 18.2273 10.3978 18.2273 8.8ZM9.5 16C5.55607 16 2.3595 12.7768 2.3595 8.8C2.3595 4.8232 5.55607 1.6 9.5 1.6C13.4439 1.6 16.6405 4.8232 16.6405 8.8C16.6405 12.7768 13.4439 16 9.5 16Z" fill="white"/>
</svg>
