<svg width="24" height="24" viewBox="0 0 24 24" fill="none" xmlns="http://www.w3.org/2000/svg">
<path d="M16.0109 4.00021C16.0073 4.00016 16.0038 3.99965 16.0002 3.99965H10.4141L11.7071 2.70669C12.0976 2.31616 12.0976 1.68294 11.7071 1.29241C11.3166 0.901879 10.6834 0.901879 10.2928 1.29241L7.2927 4.29253C7.26941 4.31583 7.24737 4.34035 7.22647 4.3658C7.217 4.37733 7.20875 4.38952 7.19984 4.40138C7.18915 4.41563 7.17814 4.42956 7.16825 4.44437C7.15873 4.45857 7.15048 4.47334 7.14181 4.48792C7.13379 4.50132 7.12535 4.51445 7.11795 4.52828C7.11002 4.54314 7.10327 4.55842 7.09615 4.57356C7.08935 4.588 7.08213 4.6022 7.07599 4.61697C7.0699 4.63169 7.06498 4.64674 7.05963 4.66164C7.05391 4.67749 7.04787 4.69314 7.04294 4.70936C7.03844 4.72427 7.03512 4.73946 7.03132 4.75455C7.02715 4.7711 7.02251 4.78741 7.01918 4.80429C7.01571 4.82173 7.01365 4.83935 7.01116 4.85689C7.00905 4.8716 7.00629 4.88604 7.00479 4.90095C7.0016 4.93344 6.99986 4.96601 6.99986 4.99864C6.99986 4.99897 6.99982 4.9993 6.99982 4.99963C6.99982 5 6.99986 5.00033 6.99986 5.0007C6.99991 5.03328 7.0016 5.06586 7.00479 5.0983C7.00624 5.11321 7.00905 5.12769 7.01116 5.14241C7.01369 5.15999 7.01571 5.17757 7.01918 5.19501C7.02251 5.21188 7.02715 5.2282 7.03132 5.24475C7.03512 5.25984 7.0384 5.27498 7.04294 5.28989C7.04787 5.30611 7.05396 5.32176 7.05963 5.33765C7.06498 5.35256 7.0699 5.36756 7.07595 5.38223C7.08209 5.39705 7.0893 5.41125 7.0961 5.42569C7.10323 5.44083 7.10998 5.45611 7.1179 5.47093C7.12531 5.48475 7.13374 5.49793 7.14181 5.51133C7.15048 5.52587 7.15873 5.54063 7.16825 5.55484C7.17818 5.5697 7.18925 5.58367 7.19993 5.59792C7.20879 5.60973 7.217 5.62192 7.22647 5.6334C7.24737 5.6589 7.26941 5.68342 7.2927 5.70672L10.2928 8.70684C10.6834 9.09737 11.3166 9.09737 11.7071 8.70684C12.0976 8.31631 12.0976 7.68309 11.7071 7.29256L10.4141 5.9996H15.9917C15.9944 5.9996 15.997 6.00003 15.9997 6.00003C19.3175 6.00003 21.9999 8.68242 21.9999 12.0003C21.9999 13.4566 21.4183 14.8269 20.4004 15.8456C20.01 16.2364 20.0103 16.8695 20.401 17.2599C20.7918 17.6503 21.4249 17.65 21.8153 17.2593C23.2034 15.87 24 13.9934 24 12.0003C24 7.5817 20.4282 4.0063 16.0109 4.00021Z" fill="white"/>
<path d="M16.8002 19.5984C16.8109 19.5842 16.8219 19.5703 16.8318 19.5555C16.8413 19.5412 16.8495 19.5265 16.8583 19.5119C16.8663 19.4984 16.8747 19.4854 16.882 19.4716C16.89 19.4567 16.8967 19.4413 16.9039 19.4261C16.9107 19.4118 16.9179 19.3976 16.924 19.3829C16.9301 19.3681 16.935 19.353 16.9404 19.338C16.9461 19.3222 16.9521 19.3067 16.957 19.2905C16.9615 19.2755 16.9649 19.2603 16.9686 19.2451C16.9728 19.2287 16.9774 19.2124 16.9807 19.1957C16.9842 19.1781 16.9863 19.1604 16.9889 19.1427C16.9909 19.1281 16.9937 19.1138 16.9952 19.099C17.0017 19.0334 17.0017 18.9672 16.9952 18.9016C16.9937 18.8868 16.991 18.8725 16.9889 18.8579C16.9863 18.8402 16.9843 18.8225 16.9808 18.8049C16.9775 18.7881 16.9729 18.7719 16.9687 18.7554C16.9649 18.7403 16.9616 18.725 16.957 18.71C16.9521 18.6938 16.9461 18.6783 16.9404 18.6625C16.935 18.6475 16.9301 18.6324 16.924 18.6176C16.9179 18.6029 16.9107 18.5888 16.9039 18.5745C16.8967 18.5592 16.89 18.5438 16.882 18.5289C16.8746 18.5152 16.8662 18.5021 16.8583 18.4888C16.8495 18.4741 16.8412 18.4593 16.8317 18.4451C16.8218 18.4303 16.8109 18.4164 16.8003 18.4023C16.7913 18.3903 16.783 18.3781 16.7735 18.3665C16.7529 18.3414 16.7312 18.3172 16.7082 18.2943C16.7079 18.2939 16.7076 18.2935 16.7073 18.2932L13.7071 15.2931C13.3166 14.9025 12.6834 14.9025 12.2929 15.2931C11.9023 15.6836 11.9023 16.3168 12.2929 16.7073L13.5858 18.0003H8.00827C8.00559 18.0003 8.00302 17.9999 8.00034 17.9999C4.68249 17.9999 2.0001 15.3175 2.0001 11.9996C2.0001 10.5433 2.58175 9.17301 3.59959 8.15428C3.98998 7.76356 3.98969 7.13039 3.59898 6.74C3.20826 6.34961 2.57509 6.34989 2.1847 6.74061C0.79658 8.12981 0 10.0064 0 11.9995C0 16.4183 3.57183 19.9937 7.98909 19.9997C7.9927 19.9998 7.99622 20.0003 7.99983 20.0003H13.5858L12.2929 21.2933C11.9023 21.6838 11.9023 22.317 12.2929 22.7075C12.6834 23.0981 13.3166 23.0981 13.7071 22.7075L16.7073 19.7074C16.7075 19.7072 16.7076 19.707 16.7078 19.7069C16.7308 19.6837 16.7527 19.6594 16.7735 19.6342C16.7831 19.6225 16.7913 19.6103 16.8002 19.5984Z" fill="white"/>
</svg>
